<?xml version="1.0" encoding="UTF-8" standalone="no"?>
<svg width="18px" height="18px" viewBox="0 0 18 18" version="1.1" xmlns="http://www.w3.org/2000/svg" xmlns:xlink="http://www.w3.org/1999/xlink">
    <!-- Generator: sketchtool 3.6.1 (26313) - http://www.bohemiancoding.com/sketch -->
    <title>E89569E1-CA59-44DA-A5A5-B13399487903</title>
    <desc>Created with sketchtool.</desc>
    <defs/>
    <g id="startHere" stroke="none" stroke-width="1" fill="none" fill-rule="evenodd">
        <g id="005.1-个人主页（设计师）" transform="translate(-980.000000, -284.000000)">
            <g id="message-icon" transform="translate(980.000000, 284.000000)">
                <path d="M2.27373675e-13,3.07784298 C2.27373675e-13,2.23293998 0.309955122,1.50874845 0.929877073,0.905245209 C1.54979902,0.301745828 2.28657951,6.75015599e-14 3.14024585,6.75015599e-14 L14.8597561,0 C15.7134189,0 16.4502002,0.301745828 17.0701221,0.905245209 C17.6900437,1.50874845 18,2.23293998 18,3.07784298 L18,10.9106588 C18,11.7555618 17.6900437,12.4797533 17.0701221,13.0832566 C16.4502002,13.6867598 15.7134189,13.9885056 14.8597561,13.9885056 L12.6097561,13.9885056 L6.39024401,17.8515625 L6.3902439,13.9885056 L3.14024585,13.9885056 C2.28657951,13.9885056 1.54979902,13.6867598 0.929877073,13.0832566 C0.309955122,12.4797533 0,11.7555618 0,10.9106588 L2.27373675e-13,3.07784298 Z M11.4126744,12.386321 L11.945114,11.9885056 L12.6097561,11.9885056 L14.8597561,11.9885056 C15.190316,11.9885056 15.4271155,11.8915252 15.6750129,11.6501933 C15.9107488,11.4207009 16,11.2121713 16,10.9106588 L16,3.07784298 C16,2.77633048 15.9107488,2.56780092 15.6750179,2.33831333 C15.4271186,2.09698115 15.1903167,2 14.8597561,2 L3.14024585,2 C2.80968221,2 2.572881,2.09698081 2.32498587,2.33830887 C2.08925087,2.56780039 2,2.7763294 2,3.07784298 L2,10.9106588 C2,11.2121724 2.08925087,11.4207014 2.32498587,11.6501929 C2.57288406,11.8915255 2.8096829,11.9885056 3.14024585,11.9885056 L6.3902439,11.9885056 L8.3902439,11.9885056 L8.3902439,13.9885056 L8.39024401,14.4880371 L11.4126744,12.386321 Z" id="message" fill="#777777"/>
                <circle id="0-3" fill="#444444" cx="13" cy="7" r="1"/>
                <circle id="0-2" fill="#444444" cx="9" cy="7" r="1"/>
                <circle id="0-1" fill="#444444" cx="5" cy="7" r="1"/>
            </g>
        </g>
    </g>
</svg>