<svg xmlns="http://www.w3.org/2000/svg" xmlns:xlink="http://www.w3.org/1999/xlink" width="24" height="32" viewBox="0 0 24 32">
    <defs>
        <path id="a" d="M0 .029h23.996V23.97H0z"/>
        <path id="c" d="M.029.044h5.303v6.623H.03z"/>
        <path id="e" d="M0 32h24V0H0z"/>
    </defs>
    <g fill="none" fill-rule="evenodd">
        <mask id="b" fill="#fff">
            <use xlink:href="#a"/>
        </mask>
        <path fill="#0075C1" d="M23.996 18.984a4.992 4.992 0 0 1-4.998 4.986h-14A4.992 4.992 0 0 1 0 18.984V5.015A4.992 4.992 0 0 1 4.998.03h14a4.992 4.992 0 0 1 4.998 4.986v13.969z" mask="url(#b)"/>
        <g transform="translate(2.667 25.333)">
            <mask id="d" fill="#fff">
                <use xlink:href="#c"/>
            </mask>
            <path fill="#0075C1" d="M1.74 1.851V4.87h1.351c.15 0 .267-.05.354-.151a.855.855 0 0 0 .166-.254c.023-.068.035-.257.035-.566v-.826c0-.266-.006-.47-.017-.613a.934.934 0 0 0-.135-.41c-.08-.132-.214-.198-.403-.198h-1.35zm1.596 4.816H.029V.044h3.196c1.571 0 2.107.899 2.107 2.076v2.187c0 1.382-.514 2.36-1.996 2.36z" mask="url(#d)"/>
        </g>
        <path fill="#0075C1" d="M10.667 29.45v-1.725c0-1.445.764-2.392 1.984-2.392h1.408c.998 0 1.873.721 1.873 1.924v.578l-1.685-.002c-.011-.138-.024-.122-.038-.228a.777.777 0 0 0-.128-.32c-.071-.109-.224-.162-.46-.162h-.384c-.184 0-.2.014-.313.041a.6.6 0 0 0-.249.11.668.668 0 0 0-.15.265c-.048.13-.072.317-.072.557v1.028c0 .303.025.52.076.65.05.131.102.221.154.27a.561.561 0 0 0 .242.117c.11.03.254.045.433.045h.191c.356 0 .564-.054.624-.16a.672.672 0 0 0 .094-.31l.024-.288L16 29.44v.662c0 .924-.627 1.899-1.874 1.899h-1.298c-1.353 0-2.161-.823-2.161-2.55"/>
        <mask id="f" fill="#fff">
            <use xlink:href="#e"/>
        </mask>
        <path fill="#0075C1" d="M18.667 32H20v-6.667h-1.333z" mask="url(#f)"/>
        <path fill="#FEFEFE" d="M18.47 9.192l-3.436.84c-.524-1.73-1.669-2.646-3.436-2.749-2.488.153-3.796 1.96-3.926 5.422.13 3.462 1.438 5.294 3.926 5.497 2.028-.05 3.206-1.272 3.535-3.665l3.534 1.146c-.851 3.715-3.208 5.599-7.069 5.65C6.624 21.078 4.261 18.177 4 12.63 4.26 7.182 6.624 4.305 11.598 4c3.535.153 5.824 1.884 6.872 5.192" mask="url(#f)"/>
    </g>
</svg>
