<?xml version="1.0" encoding="UTF-8"?>
<svg width="16px" height="16px" viewBox="0 0 16 16" version="1.1" xmlns="http://www.w3.org/2000/svg" xmlns:xlink="http://www.w3.org/1999/xlink">
    <!-- Generator: Sketch 52.5 (67469) - http://www.bohemiancoding.com/sketch -->
    <title>ic-setting</title>
    <desc>Created with Sketch.</desc>
    <g id="专辑功能" stroke="none" stroke-width="1" fill="none" fill-rule="evenodd">
        <g id="画板改进-画板分组（专辑）" transform="translate(-223.000000, -768.000000)">
            <g id="Buttons/#14/_Secondary_icon" transform="translate(212.000000, 760.000000)">
                <g id="Group-16" transform="translate(11.000000, 8.000000)">
                    <g id="icons/icon16_dark/setting">
                        <g>
                            <rect id="Rectangle" x="0" y="0" width="16" height="16"></rect>
                            <path d="M3.57667643,10.7864714 C3.2734008,10.297731 3.05760852,9.75300133 2.92696671,9.17677763 L1,9.17677763 L1,6.84038881 L2.94796272,6.84038881 C3.08443675,6.27466312 3.31305992,5.74626365 3.61516911,5.26918775 L2.11628762,3.77030626 L3.76913981,2.11745406 L5.28435153,3.63266578 C5.7579281,3.3387217 6.28399467,3.12642876 6.84038881,2.99345406 L6.84038881,1 L9.17677763,1 L9.17677763,2.99345406 C9.73433822,3.12642876 10.2592383,3.33755526 10.7339814,3.63033289 L12.2480266,2.11628762 C12.2480266,2.11628762 12.6539494,2.52221039 13.0645379,2.93279893 C13.4809587,3.34921971 13.8997124,3.76797337 13.8997124,3.76797337 L12.4019973,5.26568842 C12.7064394,5.74276431 12.925731,6.27466312 13.0657044,6.83805593 L15.016,6.83805593 L15.016,9.17444474 L13.1006977,9.17444474 C12.9747217,9.75533422 12.7495979,10.3012304 12.4474887,10.7923036 L13.8997124,12.2445273 L12.2468602,13.8973795 L10.7993023,12.4498216 C10.308229,12.7635952 9.76,12.9898855 9.17677763,13.1286924 L9.17677763,15.0148336 L6.84038881,15.0148336 L6.84038881,13.1368575 C6.25366711,13.0027164 5.70660453,12.768261 5.2131984,12.4556538 L3.77030626,13.8985459 L2.11745406,12.2456937 L3.57667643,10.7864714 Z M5.66577896,6.94186951 L5.66577896,9.20010652 L6.8322237,10.4400373 L9.20127297,10.4400373 L10.3315579,9.23743276 L10.3315579,6.86838349 L9.1289534,5.66577896 L6.8322237,5.66577896 L5.66577896,6.94186951 Z" id="Combined-Shape" fill="#444444"></path>
                        </g>
                    </g>
                </g>
            </g>
        </g>
    </g>
</svg>