<svg xmlns="http://www.w3.org/2000/svg" width="224" height="104" viewBox="0 0 224 104">
    <g fill="none" fill-rule="nonzero">
        <path fill="#000" fill-opacity=".1" d="M22 44c12.15 0 22-9.85 22-22S34.15 0 22 0 0 9.85 0 22s9.85 22 22 22z"/>
        <circle cx="82" cy="22" r="22" fill="#000" fill-opacity=".1"/>
        <circle cx="142" cy="22" r="22" fill="#000" fill-opacity=".1"/>
        <path fill="#000" fill-opacity=".1" d="M22 104c12.15 0 22-9.85 22-22s-9.85-22-22-22S0 69.85 0 82s9.85 22 22 22z"/>
        <circle cx="82" cy="82" r="22" fill="#000" fill-opacity=".1"/>
        <circle cx="142" cy="82" r="22" fill="#000" fill-opacity=".1"/>
        <path fill="#C90000" d="M21.999 2.001c11.047 0 20 8.953 20 20 0 11.045-8.953 20-20 20-11.045 0-19.998-8.955-19.998-20 0-11.047 8.953-20 19.998-20"/>
        <path fill="#FFF" d="M33.732 19.5a.84.84 0 0 1-.84-.84 6.303 6.303 0 0 0-6.297-6.295.84.84 0 0 1 0-1.681c4.4 0 7.979 3.579 7.979 7.976a.84.84 0 0 1-.842.84zm-7.47-3.454c1.543 0 2.8 1.257 2.8 2.8a.631.631 0 0 1-1.262 0 1.54 1.54 0 0 0-1.538-1.538.63.63 0 0 1 0-1.262zm-.019 2.744c1.034.775-.074 3.187-.074 3.187s3.56-.185 4.412 1.927c1.753 4.341-5.561 9.787-12.347 9.787-6.783 0-9.306-3.521-9.306-6.598s1.372-5.633 4.079-8.489c2.571-2.71 4.789-3.792 6.192-3.409 1.224.332.777 3.114.815 4.67 2.374-1.519 5.192-1.854 6.229-1.075zm-7.815 3.542c-4.473.44-7.881 3.032-7.608 5.787.272 2.757 4.118 4.633 8.593 4.19 4.473-.44 7.879-3.032 7.608-5.787-.272-2.755-4.12-4.631-8.593-4.19zm1.258 8.338c-1.883 1.137-4.179.788-5.127-.781-.95-1.569-.191-3.763 1.692-4.901s4.179-.788 5.127.781c.948 1.569.192 3.763-1.692 4.901zm-1.284-3.103c-.314-.521-1.084-.634-1.72-.251-.634.383-.892 1.117-.576 1.64.316.522 1.085.633 1.72.25.635-.382.892-1.117.576-1.639zm11.703-8.982a3.588 3.588 0 0 0-3.583-3.582.735.735 0 1 1 0-1.471 5.06 5.06 0 0 1 5.055 5.053.737.737 0 1 1-1.472 0z"/>
        <path fill="#2A9CD5" d="M81.999 2.001c11.047 0 20.001 8.953 20.001 20 0 11.045-8.954 20-20.001 20-11.044 0-20-8.955-20-20 0-11.047 8.956-20 20-20"/>
        <path fill="#FFF" d="M78.96 32.309h-1.231c-1.245-.126-2.963-.213-3.495-1.082-.184-.301-.173-.968.017-1.306.282-.499.924-.638 1.669-.741-.734-.58-1.415-1.215-1.809-2.147-.063-.15-.134-.308-.193-.465-.061-.159-.084-.327-.177-.481-.161.128-.213.364-.316.55-.212.249-.548.67-.912.842-.127.062-.352.153-.493.121-.275-.063-.331-.662-.385-1.015v-.875c.286-2.257 1.483-3.624 2.932-4.745-.229-.615.044-1.309.334-1.684-.011-.361.123-.859.352-1.099.02-1.193.36-2.16.86-2.939.902-1.409 1.928-2.554 3.672-3.112 1.74-.556 4.224-.506 5.83.173.859.36 1.542.732 2.109 1.288.89.87 1.409 1.902 1.775 3.3.058.225.108.461.139.705.03.226.036.492.106.723.088.284.372.544.491.892.203.586.231 1.212-.052 1.736a15.362 15.362 0 0 1 1.528 2.698c.391.877.72 2.497.264 3.525-.111.251-.379.597-.65.6-.311.006-.528-.349-.684-.583a6.73 6.73 0 0 1-.475-.809c-.26.321-.357.755-.544 1.152a5.25 5.25 0 0 1-1.073 1.462c.463.254.985.478 1.405.807.268.21.627.505.529.998-.056.266-.298.532-.493.669-1.313.93-4.414.811-6.148.242-.166-.056-.339-.101-.51-.156-.158-.051-.325-.149-.474-.171-.124-.021-.316-.008-.474-.017-.173-.013-.377-.048-.457-.035-.087.014-.21.13-.316.189-.742.42-1.569.757-2.651.79"/>
        <path fill="#22A049" d="M162 22.001c0 11.045-8.954 20-20 20-11.045 0-20-8.955-20-20 0-11.047 8.955-20 20-20 11.046 0 20 8.953 20 20z"/>
        <path fill="#FFF" d="M133.063 15.871h17.663v-2.452h-17.663v2.452zm-.574 14.54h18.812v-2.452h-5.048l1.791-2.547-2.356-.844h3.583v-7.183h-14.752v7.183h3.114l-1.965 1.13a71.867 71.867 0 0 1 1.753 2.261h-4.932v2.452zm4.712-10.69h9.387v2.51h-9.387v-2.51zm1.064 4.847h6.849a70.68 70.68 0 0 1-2.032 3.391h-3.917l1.197-.708c-.422-.582-1.121-1.476-2.097-2.683z"/>
        <g transform="translate(180)">
            <circle cx="22" cy="22" r="22" fill="#000" fill-opacity=".1"/>
            <path fill="#0B0" d="M42 22.001c0 11.045-8.954 20-20 20-11.045 0-20-8.955-20-20 0-11.047 8.955-20 20-20 11.046 0 20 8.953 20 20z"/>
            <path fill="#FFF" d="M16.577 16.09c0-.334-.102-.602-.305-.806-.203-.203-.472-.305-.806-.305-.35 0-.659.104-.927.311a.967.967 0 0 0-.403.8c0 .317.134.58.403.787.268.208.577.312.927.312.334 0 .603-.1.806-.3.203-.199.305-.465.305-.8zm9.07 6.189c0-.228-.104-.431-.311-.61-.208-.18-.474-.269-.8-.269-.22 0-.421.092-.604.275-.183.183-.275.384-.275.604 0 .228.092.433.275.616.183.183.384.275.604.275.326 0 .592-.09.8-.269.207-.179.311-.386.311-.622zm-2.88-6.19c0-.333-.1-.601-.3-.805-.2-.203-.466-.305-.8-.305-.35 0-.659.104-.927.311a.967.967 0 0 0-.403.8c0 .317.134.58.403.787.268.208.578.312.928.312.333 0 .6-.1.8-.3.198-.199.298-.465.298-.8zm7.75 6.19c0-.228-.105-.431-.317-.61-.211-.18-.476-.269-.793-.269-.22 0-.421.092-.604.275-.184.183-.275.384-.275.604 0 .228.091.433.275.616.183.183.384.275.604.275.317 0 .582-.09.793-.269.212-.179.318-.386.318-.622zm-3.246-4.846a6.729 6.729 0 0 0-.855-.05c-1.375 0-2.64.314-3.796.94-1.156.627-2.065 1.476-2.729 2.546a6.535 6.535 0 0 0-.994 3.51c0 .634.093 1.253.28 1.855a9.724 9.724 0 0 1-1.44.018 7.026 7.026 0 0 1-.672-.08l-.543-.085c-.11-.016-.331-.059-.665-.128s-.537-.112-.61-.128l-3.089 1.55.88-2.66c-2.36-1.653-3.54-3.647-3.54-5.982 0-1.375.396-2.64 1.19-3.797.793-1.155 1.867-2.065 3.222-2.728 1.355-.663 2.834-.995 4.437-.995 1.433 0 2.785.269 4.06.806 1.273.537 2.339 1.28 3.197 2.228.859.948 1.414 2.008 1.667 3.18zm7.226 6.848c0 .952-.279 1.861-.836 2.728-.558.867-1.312 1.654-2.264 2.362l.67 2.21-2.428-1.33c-1.221.3-2.108.45-2.661.45-1.376 0-2.641-.286-3.797-.86-1.155-.574-2.065-1.353-2.728-2.337a5.651 5.651 0 0 1-.995-3.223c0-1.164.332-2.238.995-3.223.663-.985 1.573-1.764 2.728-2.337 1.156-.574 2.421-.861 3.797-.861 1.31 0 2.543.287 3.698.86 1.156.574 2.082 1.356 2.777 2.344.696.99 1.044 2.061 1.044 3.217z"/>
        </g>
        <g transform="translate(180 60)">
            <circle cx="22" cy="22" r="22" fill="#000" fill-opacity=".1"/>
            <path fill="#01CB01" d="M42 22.001c0 11.045-8.954 20-20 20-11.045 0-20-8.955-20-20 0-11.047 8.955-20 20-20 11.046 0 20 8.953 20 20z"/>
            <path fill="#FFF" d="M16.577 16.09c0-.334-.102-.602-.305-.806-.203-.203-.472-.305-.806-.305-.35 0-.659.104-.927.311a.967.967 0 0 0-.403.8c0 .317.134.58.403.787.268.208.577.312.927.312.334 0 .603-.1.806-.3.203-.199.305-.465.305-.8zm9.07 6.189c0-.228-.104-.431-.311-.61-.208-.18-.474-.269-.8-.269-.22 0-.421.092-.604.275-.183.183-.275.384-.275.604 0 .228.092.433.275.616.183.183.384.275.604.275.326 0 .592-.09.8-.269.207-.179.311-.386.311-.622zm-2.88-6.19c0-.333-.1-.601-.3-.805-.2-.203-.466-.305-.8-.305-.35 0-.659.104-.927.311a.967.967 0 0 0-.403.8c0 .317.134.58.403.787.268.208.578.312.928.312.333 0 .6-.1.8-.3.198-.199.298-.465.298-.8zm7.75 6.19c0-.228-.105-.431-.317-.61-.211-.18-.476-.269-.793-.269-.22 0-.421.092-.604.275-.184.183-.275.384-.275.604 0 .228.091.433.275.616.183.183.384.275.604.275.317 0 .582-.09.793-.269.212-.179.318-.386.318-.622zm-3.246-4.846a6.729 6.729 0 0 0-.855-.05c-1.375 0-2.64.314-3.796.94-1.156.627-2.065 1.476-2.729 2.546a6.535 6.535 0 0 0-.994 3.51c0 .634.093 1.253.28 1.855a9.724 9.724 0 0 1-1.44.018 7.026 7.026 0 0 1-.672-.08l-.543-.085c-.11-.016-.331-.059-.665-.128s-.537-.112-.61-.128l-3.089 1.55.88-2.66c-2.36-1.653-3.54-3.647-3.54-5.982 0-1.375.396-2.64 1.19-3.797.793-1.155 1.867-2.065 3.222-2.728 1.355-.663 2.834-.995 4.437-.995 1.433 0 2.785.269 4.06.806 1.273.537 2.339 1.28 3.197 2.228.859.948 1.414 2.008 1.667 3.18zm7.226 6.848c0 .952-.279 1.861-.836 2.728-.558.867-1.312 1.654-2.264 2.362l.67 2.21-2.428-1.33c-1.221.3-2.108.45-2.661.45-1.376 0-2.641-.286-3.797-.86-1.155-.574-2.065-1.353-2.728-2.337a5.651 5.651 0 0 1-.995-3.223c0-1.164.332-2.238.995-3.223.663-.985 1.573-1.764 2.728-2.337 1.156-.574 2.421-.861 3.797-.861 1.31 0 2.543.287 3.698.86 1.156.574 2.082 1.356 2.777 2.344.696.99 1.044 2.061 1.044 3.217z"/>
        </g>
        <path fill="#DF0201" d="M21.999 62.001c11.047 0 20 8.953 20 20 0 11.045-8.953 20-20 20-11.045 0-19.998-8.955-19.998-20 0-11.047 8.953-20 19.998-20"/>
        <path fill="#FFF" d="M33.732 79.5a.84.84 0 0 1-.84-.84 6.303 6.303 0 0 0-6.297-6.295.84.84 0 0 1 0-1.681c4.4 0 7.979 3.579 7.979 7.976a.84.84 0 0 1-.842.84zm-7.47-3.454c1.543 0 2.8 1.257 2.8 2.8a.631.631 0 0 1-1.262 0 1.54 1.54 0 0 0-1.538-1.538.63.63 0 0 1 0-1.262zm-.019 2.744c1.034.775-.074 3.187-.074 3.187s3.56-.185 4.412 1.927c1.753 4.341-5.561 9.787-12.347 9.787-6.783 0-9.306-3.521-9.306-6.598s1.372-5.633 4.079-8.489c2.571-2.71 4.789-3.792 6.192-3.409 1.224.332.777 3.114.815 4.67 2.374-1.519 5.192-1.854 6.229-1.075zm-7.815 3.542c-4.473.44-7.881 3.032-7.608 5.787.272 2.757 4.118 4.633 8.593 4.19 4.473-.44 7.879-3.032 7.608-5.787-.272-2.755-4.12-4.631-8.593-4.19zm1.258 8.338c-1.883 1.137-4.179.788-5.127-.781-.95-1.569-.191-3.763 1.692-4.901s4.179-.788 5.127.781c.948 1.569.192 3.763-1.692 4.901zm-1.284-3.103c-.314-.521-1.084-.634-1.72-.251-.634.383-.892 1.117-.576 1.64.316.522 1.085.633 1.72.25.635-.382.892-1.117.576-1.639zm11.703-8.982a3.588 3.588 0 0 0-3.583-3.582.735.735 0 1 1 0-1.471 5.06 5.06 0 0 1 5.055 5.053.737.737 0 1 1-1.472 0z"/>
        <path fill="#31B0DC" d="M81.999 62.001c11.047 0 20.001 8.953 20.001 20 0 11.045-8.954 20-20.001 20-11.044 0-20-8.955-20-20 0-11.047 8.956-20 20-20"/>
        <path fill="#FFF" d="M78.96 92.309h-1.231c-1.245-.126-2.963-.213-3.495-1.082-.184-.301-.173-.968.017-1.306.282-.499.924-.638 1.669-.741-.734-.58-1.415-1.215-1.809-2.147-.063-.15-.134-.308-.193-.465-.061-.159-.084-.327-.177-.481-.161.128-.213.364-.316.55-.212.249-.548.67-.912.842-.127.062-.352.153-.493.121-.275-.063-.331-.662-.385-1.015v-.875c.286-2.257 1.483-3.624 2.932-4.745-.229-.615.044-1.309.334-1.684-.011-.361.123-.859.352-1.099.02-1.193.36-2.16.86-2.939.902-1.409 1.928-2.554 3.672-3.112 1.74-.556 4.224-.506 5.83.173.859.36 1.542.732 2.109 1.288.89.87 1.409 1.902 1.775 3.3.058.225.108.461.139.705.03.226.036.492.106.723.088.284.372.544.491.892.203.586.231 1.212-.052 1.736a15.362 15.362 0 0 1 1.528 2.698c.391.877.72 2.497.264 3.525-.111.251-.379.597-.65.6-.311.006-.528-.349-.684-.583a6.73 6.73 0 0 1-.475-.809c-.26.321-.357.755-.544 1.152a5.25 5.25 0 0 1-1.073 1.462c.463.254.985.478 1.405.807.268.21.627.505.529.998-.056.266-.298.532-.493.669-1.313.93-4.414.811-6.148.242-.166-.056-.339-.101-.51-.156-.158-.051-.325-.149-.474-.171-.124-.021-.316-.008-.474-.017-.173-.013-.377-.048-.457-.035-.087.014-.21.13-.316.189-.742.42-1.569.757-2.651.79"/>
        <path fill="#29B358" d="M162 82.001c0 11.045-8.954 20-20 20-11.045 0-20-8.955-20-20 0-11.047 8.955-20 20-20 11.046 0 20 8.953 20 20z"/>
        <path fill="#FFF" d="M133.063 75.871h17.663v-2.452h-17.663v2.452zm-.574 14.54h18.812v-2.452h-5.048l1.791-2.547-2.356-.844h3.583v-7.183h-14.752v7.183h3.114l-1.965 1.13a71.867 71.867 0 0 1 1.753 2.261h-4.932v2.452zm4.712-10.69h9.387v2.51h-9.387v-2.51zm1.064 4.847h6.849a70.68 70.68 0 0 1-2.032 3.391h-3.917l1.197-.708c-.422-.582-1.121-1.476-2.097-2.683z"/>
    </g>
</svg>
