<svg xmlns="http://www.w3.org/2000/svg" width="18" height="78" viewBox="0 0 18 78">
    <g fill="none" fill-rule="evenodd">
        <path fill="#979797" d="M10.268 9.297l7.07 7.071-1.413 1.414-7.071-7.07-7.072 7.07-1.414-1.414 7.071-7.07L.37 2.225 1.781.812l7.072 7.071 7.07-7.071 1.415 1.414z"/>
        <path fill="#4D4D4D" d="M10.268 39.297l7.07 7.071-1.413 1.414-7.071-7.07-7.072 7.07-1.414-1.414 7.071-7.07-7.07-7.072 1.413-1.414 7.072 7.071 7.07-7.071 1.415 1.414z"/>
        <path fill="#262626" d="M10.268 69.297l7.07 7.071-1.413 1.414-7.071-7.07-7.072 7.07-1.414-1.414 7.071-7.07-7.07-7.072 1.413-1.414 7.072 7.071 7.07-7.071 1.415 1.414z"/>
    </g>
</svg>
